# xmcd
#
# Track frame offsets:
#	180
#	16895
#	36393
#	53034
#	69024
#	87289
#	102695
#	122431
#	135020
#	155419
#	172606
#
# Disc length: 2590 seconds
#
# Revision: 4
# Processed by: cddbd v1.4PL0 Copyright (c) Steve Scherf et al.
# Submitted via: EasyCDDAExtractor 5.0.7
#
DISCID=790a1c0b
DTITLE=The Great Divide - Goin for Broke
DYEAR=1994
DGENRE=Country
TTITLE0=Rather Have Nothin'
TTITLE1=Shoot The Moon
TTITLE2=Goin' For Broke
TTITLE3=Forgotten How To Fall
TTITLE4=Rock Bottom
TTITLE5=Eighteen Again
TTITLE6=Cowboy From L.A.
TTITLE7=Alive and Well
TTITLE8=When You Loved Him
TTITLE9=Life Of An Outlaw
TTITLE10=Something Wicked
EXTD=
EXTT0=
EXTT1=
EXTT2=
EXTT3=
EXTT4=
EXTT5=
EXTT6=
EXTT7=
EXTT8=
EXTT9=
EXTT10=
PLAYORDER=
